<?xml version="1.0" encoding="UTF-8"?>
<svg version="1.1" xmlns="http://www.w3.org/2000/svg" width="803" height="520">
<path d="M0 0 C0.97583038 -0.00571014 1.95166077 -0.01142029 2.95706177 -0.01730347 C4.02624847 -0.01842133 5.09543518 -0.01953918 6.19702148 -0.02069092 C7.32405487 -0.02565582 8.45108826 -0.03062073 9.61227417 -0.03573608 C13.34756068 -0.0503646 17.08280476 -0.05715986 20.81811523 -0.06268311 C23.40738934 -0.0684327 25.99666343 -0.07419046 28.5859375 -0.07995605 C33.32215537 -0.08912316 38.0583562 -0.09542355 42.79458141 -0.09845281 C49.76868897 -0.10293795 56.74260097 -0.12050972 63.71664906 -0.1494534 C69.75600798 -0.17364945 75.79527414 -0.18139578 81.83468628 -0.18312836 C84.40559963 -0.18616324 86.976512 -0.19421964 89.5473938 -0.20731354 C93.13648482 -0.22429269 96.72509455 -0.22251386 100.31420898 -0.21600342 C101.38339569 -0.2252182 102.4525824 -0.23443298 103.5541687 -0.243927 C104.52999908 -0.23835785 105.50582947 -0.2327887 106.51123047 -0.22705078 C107.78437355 -0.22925062 107.78437355 -0.22925062 109.08323669 -0.2314949 C111.25561523 0.14044189 111.25561523 0.14044189 113.02917099 1.36409283 C114.63186853 3.68539711 114.62791722 5.11772448 114.62310791 7.92951965 C114.62867706 8.91520935 114.63424622 9.90089905 114.63998413 10.91645813 C114.63076935 11.99656662 114.62155457 13.07667511 114.61206055 14.18951416 C114.61410492 15.32790741 114.61614929 16.46630066 114.61825562 17.63919067 C114.62127014 21.41190515 114.60276668 25.18418543 114.58374023 28.95684814 C114.58068387 31.57093701 114.57880682 34.1850275 114.57806396 36.79911804 C114.5743713 42.28103261 114.55940326 47.76282197 114.53686523 53.24468994 C114.5079774 60.28544212 114.49764064 67.32609353 114.49318314 74.36689854 C114.4896331 79.76534682 114.47922119 85.16377245 114.46730804 90.56220818 C114.46159525 93.15905505 114.4568399 95.75590421 114.45304108 98.35275459 C114.44619594 101.9754653 114.4325721 105.59808296 114.41674805 109.22076416 C114.41563019 110.30289688 114.41451233 111.3850296 114.4133606 112.49995422 C114.40765045 113.4828241 114.40194031 114.46569397 114.39605713 115.47834778 C114.39308247 116.33540597 114.3901078 117.19246416 114.387043 118.07549381 C114.25561523 120.14044189 114.25561523 120.14044189 113.25561523 122.14044189 C73.32561523 122.14044189 33.39561523 122.14044189 -7.74438477 122.14044189 C-9.74217189 118.14486765 -8.97314982 113.09592194 -8.99438477 108.70294189 C-9.01500977 107.64010986 -9.03563477 106.57727783 -9.05688477 105.48223877 C-9.06204102 104.46323486 -9.06719727 103.44423096 -9.07250977 102.39434814 C-9.08185547 101.45921387 -9.09120117 100.52407959 -9.10083008 99.56060791 C-8.67965442 96.70094059 -7.98348293 95.89495655 -5.74438477 94.14044189 C-3.2053666 92.42430381 -0.66839137 91.07434514 2.25561523 90.14044189 C5.44311523 90.82794189 5.44311523 90.82794189 8.25561523 92.14044189 C9.90561523 92.47044189 11.55561523 92.80044189 13.25561523 93.14044189 C16.22561523 88.68544189 16.22561523 88.68544189 19.25561523 84.14044189 C20.57561523 84.47044189 21.89561523 84.80044189 23.25561523 85.14044189 C24.95874023 88.08184814 24.95874023 88.08184814 26.50561523 91.70294189 C27.28678711 93.49925049 27.28678711 93.49925049 28.08374023 95.33184814 C28.66381836 96.72210205 28.66381836 96.72210205 29.25561523 98.14044189 C29.91561523 98.14044189 30.57561523 98.14044189 31.25561523 98.14044189 C33.89561523 93.19044189 36.53561523 88.24044189 39.25561523 83.14044189 C42.85446856 84.93986856 44.50515492 86.38998158 47.25561523 89.14044189 C47.91561523 89.14044189 48.57561523 89.14044189 49.25561523 89.14044189 C49.94397461 87.31706299 49.94397461 87.31706299 50.64624023 85.45684814 C51.26521641 83.87189401 51.88505285 82.28727565 52.50561523 80.70294189 C52.8059668 79.90050049 53.10631836 79.09805908 53.41577148 78.27130127 C53.71870117 77.50753174 54.02163086 76.74376221 54.33374023 75.95684814 C54.60605469 75.24987793 54.87836914 74.54290771 55.15893555 73.81451416 C56.25561523 72.14044189 56.25561523 72.14044189 58.21166992 71.24957275 C58.88617188 71.21355957 59.56067383 71.17754639 60.25561523 71.14044189 C62.88061523 73.57794189 62.88061523 73.57794189 65.25561523 76.14044189 C65.91561523 76.14044189 66.57561523 76.14044189 67.25561523 76.14044189 C67.57030762 75.22887329 67.57030762 75.22887329 67.89135742 74.29888916 C71.7743372 63.25237353 75.79743415 52.78924716 82.63061523 43.20294189 C83.14205078 42.48243652 83.65348633 41.76193115 84.18041992 41.01959229 C85.65405273 39.05059814 85.65405273 39.05059814 88.25561523 36.14044189 C89.24561523 36.14044189 90.23561523 36.14044189 91.25561523 36.14044189 C91.58561523 37.13044189 91.91561523 38.12044189 92.25561523 39.14044189 C92.91561523 39.14044189 93.57561523 39.14044189 94.25561523 39.14044189 C94.36882379 34.05740503 94.36882379 34.05740503 93.25561523 29.14044189 C90.28561523 29.14044189 87.31561523 29.14044189 84.25561523 29.14044189 C84.25561523 29.80044189 84.25561523 30.46044189 84.25561523 31.14044189 C85.74061523 31.63544189 85.74061523 31.63544189 87.25561523 32.14044189 C85.73096072 35.50090491 83.74907764 38.21872341 81.50561523 41.14044189 C74.75222165 50.33629248 70.47975461 60.59878433 66.25561523 71.14044189 C64.07098421 70.10632352 62.44152154 69.33409429 60.75561523 67.57794189 C58.96787022 65.86468625 57.63764946 65.65296975 55.25561523 65.14044189 C55.08545898 65.67411377 54.91530273 66.20778564 54.73999023 66.75762939 C52.82098199 72.657559 50.61507284 78.40348659 48.25561523 84.14044189 C44.46930821 83.38477138 42.85151083 82.01446916 40.25561523 79.14044189 C37.02356245 79.85303413 37.02356245 79.85303413 35.65014648 82.86309814 C35.12807617 83.96524658 34.60600586 85.06739502 34.06811523 86.20294189 C33.53831055 87.30766846 33.00850586 88.41239502 32.46264648 89.55059814 C32.06432617 90.40524658 31.66600586 91.25989502 31.25561523 92.14044189 C28.25561523 91.14044189 28.25561523 91.14044189 26.65014648 88.41778564 C26.12807617 87.31563721 25.60600586 86.21348877 25.06811523 85.07794189 C24.53831055 83.97321533 24.00850586 82.86848877 23.46264648 81.73028564 C22.86516602 80.44831299 22.86516602 80.44831299 22.25561523 79.14044189 C18.45941368 80.40584241 17.76883335 81.92262621 15.56811523 85.20294189 C14.63418945 86.58159424 14.63418945 86.58159424 13.68139648 87.98809814 C13.21088867 88.69837158 12.74038086 89.40864502 12.25561523 90.14044189 C9.58842145 89.62406599 6.99698649 89.06735116 4.38061523 88.32794189 C-0.0633334 88.06130498 -2.01899585 89.77625278 -5.74438477 92.14044189 C-6.40438477 92.14044189 -7.06438477 92.14044189 -7.74438477 92.14044189 C-9.34371313 88.94178517 -8.88263256 85.47163101 -8.8737793 81.95880127 C-8.87553162 81.11316116 -8.87728394 80.26752106 -8.87908936 79.39625549 C-8.88350189 76.59221361 -8.88057197 73.78823445 -8.87719727 70.98419189 C-8.87787048 69.04127999 -8.87884065 67.09836816 -8.88009644 65.15545654 C-8.8815726 61.07996826 -8.87942146 57.00450186 -8.87475586 52.92901611 C-8.86905862 47.69641121 -8.87233806 42.4638576 -8.87832832 37.23125458 C-8.88193613 33.21821707 -8.88079434 29.2051918 -8.87820053 25.19215393 C-8.87753187 23.26237482 -8.87835757 21.3325946 -8.88068008 19.40281677 C-8.88321018 16.70920863 -8.87936093 14.01568439 -8.8737793 11.32208252 C-8.87580353 10.51890091 -8.87782776 9.7157193 -8.87991333 8.88819885 C-8.85864887 3.3689701 -8.85864887 3.3689701 -7.74438477 1.14044189 C-4.84945265 0.17546452 -3.01001044 0.01054921 0 0 Z " fill="#FEFEFE" transform="translate(141.744384765625,196.85955810546875)"/>
<path d="M0 0 C0.66 0.33 1.32 0.66 2 1 C2 1.66 2 2.32 2 3 C2.94875 2.505 3.8975 2.01 4.875 1.5 C9.54221339 -0.47060121 14.00597587 -0.7580913 19 0 C21.22342384 0.94962699 23.18633203 2.00216511 25.2109375 3.3203125 C27.0495861 4.24817159 27.0495861 4.24817159 29.0703125 3.1875 C30.02550781 2.5996875 30.02550781 2.5996875 31 2 C37.2864889 -0.82892 44.78554041 -1.20023445 51.4140625 0.6875 C56.09118296 2.78957661 58.63197694 5.35867481 61 10 C62.07799107 14.09583021 62.12905044 18.01119504 62.1328125 22.234375 C62.13376923 22.91300598 62.13472595 23.59163696 62.13571167 24.29083252 C62.13638898 25.71618747 62.13456614 27.14154559 62.13037109 28.56689453 C62.12498301 30.75690528 62.13034818 32.94671405 62.13671875 35.13671875 C62.13605854 36.52343795 62.13477857 37.91015703 62.1328125 39.296875 C62.13168457 40.55854492 62.13055664 41.82021484 62.12939453 43.12011719 C62 46 62 46 61 47 C59.00200428 47.09873816 57.00042842 47.12971799 55 47.125 C53.906875 47.12757813 52.81375 47.13015625 51.6875 47.1328125 C49 47 49 47 48 46 C47.84019563 43.55391002 47.74070553 41.13268942 47.68359375 38.68359375 C47.66281265 37.95253922 47.64203156 37.22148468 47.62062073 36.46827698 C47.55504976 34.12478344 47.49620568 31.78117461 47.4375 29.4375 C47.39432192 27.85220145 47.35070787 26.26691471 47.30664062 24.68164062 C47.1993608 20.78787963 47.0981151 16.89400228 47 13 C43.44646071 11.8154869 40.72986522 11.73358106 37 12 C34.38406847 13.83115207 34.03010545 14.90968366 33 18 C32.86092971 20.12512306 32.77478235 22.25388109 32.71875 24.3828125 C32.68136719 25.63191406 32.64398437 26.88101562 32.60546875 28.16796875 C32.53494817 30.81379655 32.46463689 33.45962993 32.39453125 36.10546875 C32.35714844 37.35199219 32.31976562 38.59851563 32.28125 39.8828125 C32.25095703 41.03152832 32.22066406 42.18024414 32.18945312 43.36376953 C32 46 32 46 31 47 C29.16884117 47.09851171 27.33380067 47.12972629 25.5 47.125 C24.4996875 47.12757813 23.499375 47.13015625 22.46875 47.1328125 C20 47 20 47 19 46 C18.8658492 43.98717193 18.79638875 41.96997118 18.75390625 39.953125 C18.72103516 38.715625 18.68816406 37.478125 18.65429688 36.203125 C18.59346365 33.58341318 18.53612916 30.9636176 18.48242188 28.34375 C18.44826172 27.10109375 18.41410156 25.8584375 18.37890625 24.578125 C18.3538501 23.43762695 18.32879395 22.29712891 18.30297852 21.12207031 C18.00090653 18.00934144 17.42110106 15.77604579 16 13 C13.15916359 11.57958179 11.14522722 11.68547728 8 12 C5.52277007 13.39279682 5.52277007 13.39279682 4 16 C2.75848479 23.44064555 2.65522988 30.9559558 2.39453125 38.48242188 C2.35714844 39.43568359 2.31976562 40.38894531 2.28125 41.37109375 C2.23581055 42.6693811 2.23581055 42.6693811 2.18945312 43.99389648 C2 46 2 46 1 47 C-0.83115883 47.09851171 -2.66619933 47.12972629 -4.5 47.125 C-5.5003125 47.12757813 -6.500625 47.13015625 -7.53125 47.1328125 C-10 47 -10 47 -11 46 C-11.0928726 44.58774954 -11.11746772 43.17091066 -11.11352539 41.75561523 C-11.11344986 40.85475693 -11.11337433 39.95389862 -11.11329651 39.02574158 C-11.10813522 38.04658279 -11.10297394 37.06742401 -11.09765625 36.05859375 C-11.0962413 35.06118668 -11.09482635 34.0637796 -11.09336853 33.03614807 C-11.08775114 29.83656876 -11.07519571 26.63705831 -11.0625 23.4375 C-11.05748724 21.27408955 -11.05292395 19.11067801 -11.04882812 16.94726562 C-11.03777607 11.63148675 -11.02102104 6.31574829 -11 1 C-7.10835652 -0.29721449 -4.10570774 -0.13033993 0 0 Z " fill="#FEFEFE" transform="translate(609,244)"/>
<path d="M0 0 C0.78503906 0.00644531 1.57007813 0.01289063 2.37890625 0.01953125 C4.4375 0.1875 4.4375 0.1875 6.4375 1.1875 C6.46062737 9.25402174 6.47841709 17.32052972 6.48931217 25.38707638 C6.49454014 29.13233037 6.50163622 32.87756176 6.51293945 36.62280273 C6.52377141 40.23431687 6.52977749 43.84580921 6.53237724 47.45733833 C6.53423094 48.83810329 6.53785049 50.218867 6.54323006 51.59962273 C6.55044447 53.52725952 6.55090809 55.45491807 6.55102539 57.38256836 C6.553246 58.48177109 6.55546661 59.58097382 6.55775452 60.71348572 C6.4375 63.1875 6.4375 63.1875 5.4375 64.1875 C3.46130553 64.31264928 1.48011827 64.3632276 -0.5 64.375 C-1.58152344 64.38917969 -2.66304688 64.40335937 -3.77734375 64.41796875 C-6.5625 64.1875 -6.5625 64.1875 -8.5625 62.1875 C-9.7175 62.6825 -10.8725 63.1775 -12.0625 63.6875 C-18.63194058 66.11634247 -24.23250228 65.89555785 -30.6796875 63.15234375 C-36.48262374 60.17863991 -39.46445687 56.50221988 -41.80859375 50.578125 C-44.2703538 42.77192215 -44.03719019 35.43458748 -40.5234375 27.984375 C-37.36436106 22.48146765 -33.68295576 19.22765192 -27.5625 17.1875 C-25.27317322 17.06656505 -22.97998676 17.01211674 -20.6875 17 C-19.47320312 16.98582031 -18.25890625 16.97164062 -17.0078125 16.95703125 C-13.71905579 17.17702745 -11.50884052 17.77034382 -8.5625 19.1875 C-8.52511719 17.98351562 -8.48773438 16.77953125 -8.44921875 15.5390625 C-8.38357072 13.96350989 -8.31712299 12.38799046 -8.25 10.8125 C-8.22744141 10.0184375 -8.20488281 9.224375 -8.18164062 8.40625 C-8.08464925 6.32534419 -7.83255175 4.25308668 -7.5625 2.1875 C-4.404724 0.082316 -3.60852866 -0.06539344 0 0 Z M-28.375 33 C-30.59882049 37.09651142 -30.72413706 40.25000508 -29.9375 44.8125 C-28.30956029 48.808352 -27.39422734 50.19180868 -23.5625 52.1875 C-18.53703664 52.83095479 -13.94625636 52.97370524 -9.5625 50.1875 C-6.70100027 45.79305398 -5.99503609 42.38925248 -6.5625 37.1875 C-7.77218895 34.4207494 -7.77218895 34.4207494 -9.5625 32.1875 C-9.954375 31.61 -10.34625 31.0325 -10.75 30.4375 C-16.81966367 26.25152506 -23.47972002 28.10472002 -28.375 33 Z " fill="#FDFEFD" transform="translate(452.5625,226.8125)"/>
<path d="M0 0 C0.94875 0.28875 1.8975 0.5775 2.875 0.875 C3.865 0.215 4.855 -0.445 5.875 -1.125 C9.29517557 -1.52458487 12.74793041 -1.6885348 15.875 -0.125 C16.06832092 6.10429354 16.24579361 12.33389214 16.41210938 18.56396484 C16.47060723 20.68451217 16.53276984 22.80496162 16.59863281 24.92529297 C16.69252469 27.96824324 16.77334935 31.01129898 16.8515625 34.0546875 C16.88375885 35.00681122 16.9159552 35.95893494 16.9491272 36.93991089 C16.97938492 38.26105392 16.97938492 38.26105392 17.01025391 39.60888672 C17.03246002 40.38610077 17.05466614 41.16331482 17.07754517 41.96408081 C16.875 43.875 16.875 43.875 14.875 45.875 C12.2734375 46.0703125 12.2734375 46.0703125 9.25 46 C8.24710937 45.98195313 7.24421875 45.96390625 6.2109375 45.9453125 C5.05464844 45.91050781 5.05464844 45.91050781 3.875 45.875 C3.545 44.885 3.215 43.895 2.875 42.875 C2.1325 43.349375 1.39 43.82375 0.625 44.3125 C-4.98214123 47.4983757 -11.29228743 47.92143139 -17.5 46.2265625 C-24.01269032 43.65228964 -28.18841079 39.96808414 -31.19140625 33.62109375 C-34.0225928 25.71154567 -33.89518946 17.1519248 -30.4375 9.4375 C-24.19330177 -1.44459909 -11.42264791 -3.75873457 0 0 Z M-15.125 11.875 C-18.70392269 15.25509365 -19.79235879 18.18072865 -20.16015625 22.953125 C-20.09121922 26.72168281 -18.62775526 29.0662198 -16.6875 32.1875 C-12.45313823 34.97598214 -8.03078595 34.56646835 -3.125 33.875 C0.1733484 32.32679565 1.32677123 31.19584885 2.71484375 27.8515625 C3.84499886 23.93279983 4.23881824 20.85293073 2.75 17 C0.47015855 13.19744743 0.47015855 13.19744743 -3.125 10.875 C-7.76262714 9.77883359 -10.96122346 9.39924097 -15.125 11.875 Z " fill="#FDFEFD" transform="translate(384.125,245.125)"/>
<path d="M0 0 C5.03878912 3.43801857 8.80238614 6.9443699 10.609375 12.875 C11.39923374 17.17183154 11.99581283 22.00837435 10 26 C-1.22 26 -12.44 26 -24 26 C-18.75756789 31.43423329 -18.75756789 31.43423329 -12 32 C-6.97807494 30.98144646 -6.97807494 30.98144646 -3 28 C0.94721702 28.32004462 3.80883649 29.6952708 7 32 C7.33 32.99 7.66 33.98 8 35 C1.15169443 41.67748616 -3.65192353 44.91585472 -13.375 45.375 C-20.85835967 45.23108924 -27.74134799 42.40889921 -33 37 C-37.30644277 29.93451424 -39.21297801 22.98265428 -37.5390625 14.7265625 C-35.52645302 7.78897925 -32.09966347 2.85979808 -25.875 -0.875 C-17.55555388 -4.13043544 -7.91803054 -4.55690737 0 0 Z M-23 13 C-23.33 13.99 -23.66 14.98 -24 16 C-17.4 16 -10.8 16 -4 16 C-4.6459559 12.1490712 -4.6459559 12.1490712 -6.5 10.25 C-12.46210757 7.26894622 -18.46267077 8.03729616 -23 13 Z " fill="#FEFEFD" transform="translate(506,247)"/>
<path d="M0 0 C1.78125 1.60546875 1.78125 1.60546875 3 3 C1.7508258 6.45925163 0.32472205 9.14693203 -2 12 C-5.44997745 11.48250338 -8.76765143 10.8055011 -12.125 9.875 C-15.70139223 9.06742756 -16.73419244 8.96945628 -20 10 C-20 10.66 -20 11.32 -20 12 C-18.13794922 12.47179687 -18.13794922 12.47179687 -16.23828125 12.953125 C-14.59618207 13.3847625 -12.95426434 13.81709067 -11.3125 14.25 C-10.49587891 14.45496094 -9.67925781 14.65992188 -8.83789062 14.87109375 C-4.05847219 16.14818532 -0.61274549 17.43664751 3 21 C5.25371975 24.97083957 5.39556434 28.49056654 5 33 C3.25837187 37.67489656 1.20873103 40.32171662 -3 43 C-11.90906832 46.42656474 -20.2763568 45.52783541 -29 42 C-31.17144717 40.79555913 -33.01939924 39.5115111 -35 38 C-34.65877813 34.92900316 -34.11774025 33.1657085 -32.3125 30.625 C-30 29 -30 29 -26.9375 29.1875 C-24.94305874 29.73915397 -22.96313684 30.34562105 -21 31 C-19.10529184 31.0685495 -17.2083166 31.08480372 -15.3125 31.0625 C-14.31863281 31.05347656 -13.32476563 31.04445313 -12.30078125 31.03515625 C-11.16189453 31.01775391 -11.16189453 31.01775391 -10 31 C-9.67 30.01 -9.34 29.02 -9 28 C-10.08539062 27.82984375 -11.17078125 27.6596875 -12.2890625 27.484375 C-13.73450289 27.24033961 -15.17980856 26.99550538 -16.625 26.75 C-17.69427734 26.58564453 -17.69427734 26.58564453 -18.78515625 26.41796875 C-24.51474812 25.41923255 -28.56471978 23.35130504 -32.8125 19.25 C-35.37387118 14.39687565 -35.38783767 10.36883885 -33.9375 5.25 C-31.70378156 1.50311745 -29.8496158 0.00180022 -26 -2 C-17.33974053 -4.14009707 -8.17391081 -3.70570957 0 0 Z " fill="#FDFEFD" transform="translate(559,247)"/>
<path d="M0 0 C2.14576637 -0.02685938 4.29162645 -0.04633088 6.4375 -0.0625 C7.63246094 -0.07410156 8.82742188 -0.08570313 10.05859375 -0.09765625 C13 0 13 0 14 1 C14.07205511 2.68608966 14.08386068 4.37500659 14.0625 6.0625 C14.05347656 6.98160156 14.04445313 7.90070313 14.03515625 8.84765625 C14.02355469 9.55792969 14.01195312 10.26820313 14 11 C16.64 11.33 19.28 11.66 22 12 C22.02687279 13.81242052 22.04633715 15.62495233 22.0625 17.4375 C22.07410156 18.44683594 22.08570313 19.45617187 22.09765625 20.49609375 C22 23 22 23 21 24 C18.69 24 16.38 24 14 24 C14.33 31.26 14.66 38.52 15 46 C17.31 46.66 19.62 47.32 22 48 C22.02687279 49.81242052 22.04633715 51.62495233 22.0625 53.4375 C22.07410156 54.44683594 22.08570313 55.45617187 22.09765625 56.49609375 C22 59 22 59 21 60 C8.24134534 61.03180411 8.24134534 61.03180411 3 57 C0.39611521 52.67925526 -0.36463207 49.52424504 -0.29296875 44.5078125 C-0.28330078 43.30898438 -0.27363281 42.11015625 -0.26367188 40.875 C-0.23853516 39.6375 -0.21339844 38.4 -0.1875 37.125 C-0.17396484 35.86429687 -0.16042969 34.60359375 -0.14648438 33.3046875 C-0.11123435 30.20268546 -0.06195504 27.10156466 0 24 C-1.65 23.67 -3.3 23.34 -5 23 C-5 19.37 -5 15.74 -5 12 C-3.35 12 -1.7 12 0 12 C0 8.04 0 4.08 0 0 Z " fill="#FDFEFD" transform="translate(288,232)"/>
<path d="M0 0 C1.19109375 -0.00386719 1.19109375 -0.00386719 2.40625 -0.0078125 C4.5 0.125 4.5 0.125 6.5 1.125 C6.83 2.115 7.16 3.105 7.5 4.125 C8.32951172 3.40570313 8.32951172 3.40570313 9.17578125 2.671875 C11.83722132 0.90056363 13.52618142 0.61781915 16.6875 0.375 C17.56792969 0.29765625 18.44835937 0.2203125 19.35546875 0.140625 C20.41701172 0.13289062 20.41701172 0.13289062 21.5 0.125 C22.5 1.125 22.5 1.125 22.59765625 3.62890625 C22.58605469 4.63824219 22.57445312 5.64757812 22.5625 6.6875 C22.55347656 7.69941406 22.54445313 8.71132812 22.53515625 9.75390625 C22.52355469 10.53636719 22.51195312 11.31882813 22.5 12.125 C21.48679687 12.38023437 21.48679687 12.38023437 20.453125 12.640625 C13.5762899 14.39438999 13.5762899 14.39438999 8.5 19.125 C7.48385601 22.17343198 7.31719818 24.43691238 7.21875 27.6328125 C7.18136719 28.70144531 7.14398438 29.77007812 7.10546875 30.87109375 C7.03491263 33.13150283 6.9646018 35.39191957 6.89453125 37.65234375 C6.85714844 38.71839844 6.81976563 39.78445313 6.78125 40.8828125 C6.73581055 42.35451904 6.73581055 42.35451904 6.68945312 43.85595703 C6.5 46.125 6.5 46.125 5.5 47.125 C3.69072719 47.24987758 1.87603893 47.30070846 0.0625 47.3125 C-0.92621094 47.32667969 -1.91492188 47.34085937 -2.93359375 47.35546875 C-5.5 47.125 -5.5 47.125 -7.5 45.125 C-7.70254517 43.21408081 -7.70254517 43.21408081 -7.63525391 40.85888672 C-7.61508209 39.97812469 -7.59491028 39.09736267 -7.5741272 38.18991089 C-7.54193085 37.23778717 -7.5097345 36.28566345 -7.4765625 35.3046875 C-7.45153656 34.33089142 -7.42651062 33.35709534 -7.40072632 32.35379028 C-7.31838269 29.23551356 -7.22184869 26.11785671 -7.125 23 C-7.06677513 20.88934845 -7.00947155 18.77867128 -6.953125 16.66796875 C-6.81278279 11.48663408 -6.6607799 6.30573854 -6.5 1.125 C-4.13386544 -0.05806728 -2.63219264 -0.00854608 0 0 Z " fill="#FDFEFD" transform="translate(325.5,243.875)"/>
<path d="M0 0 C0.7940625 0.01417969 1.588125 0.02835938 2.40625 0.04296875 C3.59734375 0.05263672 3.59734375 0.05263672 4.8125 0.0625 C6.90625 0.23046875 6.90625 0.23046875 8.90625 1.23046875 C8.93152062 7.62084106 8.94908317 14.01120058 8.96118164 20.40161133 C8.96622308 22.57739748 8.97305607 24.75318022 8.98168945 26.92895508 C8.99376338 30.04899942 8.99948005 33.16899913 9.00390625 36.2890625 C9.00906754 37.26822128 9.01422882 38.24738007 9.01954651 39.25621033 C9.01962204 40.15706863 9.01969757 41.05792694 9.01977539 41.98608398 C9.021996 42.78328354 9.02421661 43.58048309 9.02650452 44.40184021 C8.90625 46.23046875 8.90625 46.23046875 7.90625 47.23046875 C6.26284133 47.3290153 4.6151039 47.36019286 2.96875 47.35546875 C2.07285156 47.35804688 1.17695312 47.360625 0.25390625 47.36328125 C-2.09375 47.23046875 -2.09375 47.23046875 -4.09375 46.23046875 C-4.14434881 40.00084898 -4.17944062 33.77128195 -4.20361328 27.54150391 C-4.21368751 25.42104105 -4.22734733 23.30059214 -4.24462891 21.18017578 C-4.26881489 18.13700932 -4.28021869 15.09402609 -4.2890625 12.05078125 C-4.29938507 11.09865753 -4.30970764 10.14653381 -4.32034302 9.16555786 C-4.32049408 8.28479584 -4.32064514 7.40403381 -4.32080078 6.49658203 C-4.325242 5.71936798 -4.32968323 4.94215393 -4.33425903 4.14138794 C-3.96964287 1.24439893 -2.86239987 0.3150776 0 0 Z " fill="#FEFEFE" transform="translate(577.09375,243.76953125)"/>
<path d="M0 0 C3 2 3 2 3.9375 5.3125 C4 9 4 9 2.5 12 C0 14 0 14 -3.5625 14 C-8.55660377 12.54716981 -8.55660377 12.54716981 -10 10 C-10.36528977 6.5906288 -10.6140629 4.11976176 -8.9375 1.0625 C-5.91362524 -0.5957539 -3.37613017 -0.30144019 0 0 Z " fill="#FDFEFD" transform="translate(583,227)"/>
</svg>
